# xmcd
#
# Track frame offsets: 
#        150
#        12270
#        23514
#        33741
#        43953
#        55011
#        64064
#        72474
#        82300
#        93177
#        98958
#        105704
#        115848
#        127954
#        137275
#        148543
#        157018
#        167847
#        176669
#        184935
#
# Disc length: 2555 seconds
#
# Revision: 0
# Processed by: cddbd v1.5.2PL0 Copyright (c) Steve Scherf et al.
# Submitted via: ExactAudioCopy v0.99pb5
#
DISCID=1709f914
DTITLE=Johnny Cash - The SUN Records Collection - CD 3
DYEAR=2010
DGENRE=Country
TTITLE0=You're the nearest thing to heaven
TTITLE1=Don't make me go
TTITLE2=The ways of a woman in love
TTITLE3=Straight A's in love
TTITLE4=Love you because
TTITLE5=Remember me (I'm the one who loves you
TTITLE6=Always alone
TTITLE7=Born to lose
TTITLE8=You win again
TTITLE9=My treasure
TTITLE10=You're my baby
TTITLE11=Get rhythm
TTITLE12=Home of the blues
TTITLE13=Luther play the boogie
TTITLE14=Mean eyed cat
TTITLE15=Country boy
TTITLE16=Fool's hall of fame
TTITLE17=Two timin' woman
TTITLE18=Sugartime
TTITLE19=Leave that junk alone
EXTD=
EXTT0=
EXTT1=
EXTT2=
EXTT3=
EXTT4=
EXTT5=
EXTT6=
EXTT7=
EXTT8=
EXTT9=
EXTT10=
EXTT11=
EXTT12=
EXTT13=
EXTT14=
EXTT15=
EXTT16=
EXTT17=
EXTT18=
EXTT19=
PLAYORDER=
